<?xml version="1.0" encoding="UTF-8" standalone="no"?>
<!-- Created with Inkscape (http://www.inkscape.org/) -->

<svg
   width="59mm"
   height="59mm"
   viewBox="0 0 59 59"
   version="1.1"
   id="svg1"
   inkscape:version="1.4.2 (ebf0e940, 2025-05-08)"
   sodipodi:docname="ant-gray.svg"
   inkscape:export-filename="ants-menu.png"
   inkscape:export-xdpi="96"
   inkscape:export-ydpi="96"
   xmlns:inkscape="http://www.inkscape.org/namespaces/inkscape"
   xmlns:sodipodi="http://sodipodi.sourceforge.net/DTD/sodipodi-0.dtd"
   xmlns="http://www.w3.org/2000/svg"
   xmlns:svg="http://www.w3.org/2000/svg">
  <sodipodi:namedview
     id="namedview1"
     pagecolor="#ffffff"
     bordercolor="#000000"
     borderopacity="0.25"
     inkscape:showpageshadow="2"
     inkscape:pageopacity="0.0"
     inkscape:pagecheckerboard="0"
     inkscape:deskcolor="#d1d1d1"
     inkscape:document-units="mm"
     inkscape:zoom="1.6153992"
     inkscape:cx="164.9747"
     inkscape:cy="137.42733"
     inkscape:window-width="3840"
     inkscape:window-height="1027"
     inkscape:window-x="0"
     inkscape:window-y="25"
     inkscape:window-maximized="0"
     inkscape:current-layer="g39" />
  <defs
     id="defs1">
    <clipPath
       clipPathUnits="userSpaceOnUse"
       id="clipPath5-2-1">
      <path
         d="M 0,0 V 28347 H 28347 V 0 Z"
         id="path5-9-0" />
    </clipPath>
    <linearGradient
       id="SVGID_13_"
       gradientUnits="userSpaceOnUse"
       x1="109.7607"
       y1="-480.73831"
       x2="109.7607"
       y2="-288.74289"
       gradientTransform="matrix(0.7685,0.6398,-0.6398,0.7685,301.2349,400.4385)">
      <stop
         offset="0"
         style="stop-color:#FFFFFF"
         id="stop70" />
      <stop
         offset="0.4038"
         style="stop-color:#BDBDBD"
         id="stop71" />
      <stop
         offset="0.5626"
         style="stop-color:#CACACA"
         id="stop72" />
      <stop
         offset="0.8554"
         style="stop-color:#ECECEC"
         id="stop73" />
      <stop
         offset="1"
         style="stop-color:#FFFFFF"
         id="stop74" />
    </linearGradient>
    <linearGradient
       id="SVGID_14_"
       gradientUnits="userSpaceOnUse"
       x1="104.6641"
       y1="-481.082"
       x2="118.1161"
       y2="-403.05801"
       gradientTransform="matrix(0.7685,0.6398,-0.6398,0.7685,301.2349,400.4385)">
      <stop
         offset="0"
         style="stop-color:#FFFFFF"
         id="stop75" />
      <stop
         offset="1"
         style="stop-color:#DBDBDB"
         id="stop76" />
    </linearGradient>
    <linearGradient
       id="SVGID_15_"
       gradientUnits="userSpaceOnUse"
       x1="780.59772"
       y1="748.14258"
       x2="796.15271"
       y2="838.36481"
       gradientTransform="matrix(-0.6882,-0.7115,0.7188,-0.6952,572.311,1316.6182)">
      <stop
         offset="0"
         style="stop-color:#FFFFFF"
         id="stop77" />
      <stop
         offset="0.2326"
         style="stop-color:#FAFAFA;stop-opacity:0.7674"
         id="stop78" />
      <stop
         offset="1"
         style="stop-color:#F8F8F8;stop-opacity:0"
         id="stop79" />
    </linearGradient>
    <linearGradient
       id="SVGID_16_"
       gradientUnits="userSpaceOnUse"
       x1="1042.1992"
       y1="138.2412"
       x2="1042.1992"
       y2="144.6651"
       gradientTransform="matrix(0.6398,-0.7685,0.7685,0.6398,-45.5713,965.8203)">
      <stop
         offset="0"
         style="stop-color:#9E9E9E"
         id="stop85" />
      <stop
         offset="0.2297"
         style="stop-color:#A5A5A5"
         id="stop86" />
      <stop
         offset="0.5519"
         style="stop-color:#B7B7B7"
         id="stop87" />
      <stop
         offset="0.9272"
         style="stop-color:#D5D5D5"
         id="stop88" />
      <stop
         offset="1"
         style="stop-color:#DBDBDB"
         id="stop89" />
    </linearGradient>
    <linearGradient
       id="SVGID_17_"
       gradientUnits="userSpaceOnUse"
       x1="1042.1982"
       y1="143.3584"
       x2="1042.1982"
       y2="144.86481"
       gradientTransform="matrix(0.6398,-0.7685,0.7685,0.6398,-45.5713,965.8203)">
      <stop
         offset="0"
         style="stop-color:#737373"
         id="stop90" />
      <stop
         offset="0.0482"
         style="stop-color:#707070"
         id="stop91" />
      <stop
         offset="0.6667"
         style="stop-color:#4D4D4D"
         id="stop92" />
      <stop
         offset="1"
         style="stop-color:#404040"
         id="stop93" />
    </linearGradient>
    <linearGradient
       id="SVGID_20_"
       gradientUnits="userSpaceOnUse"
       x1="1055.6289"
       y1="125.9331"
       x2="1040.8075"
       y2="125.9331"
       gradientTransform="matrix(0.6398,-0.7685,0.7685,0.6398,-45.5713,965.8203)">
      <stop
         offset="0.0016"
         style="stop-color:#9E9E9E"
         id="stop105" />
      <stop
         offset="0.0253"
         style="stop-color:#A9A9A9"
         id="stop106" />
      <stop
         offset="0.0952"
         style="stop-color:#C4C4C4"
         id="stop107" />
      <stop
         offset="0.1755"
         style="stop-color:#DADADA"
         id="stop108" />
      <stop
         offset="0.2693"
         style="stop-color:#EBEBEB"
         id="stop109" />
      <stop
         offset="0.3854"
         style="stop-color:#F6F6F6"
         id="stop110" />
      <stop
         offset="0.5481"
         style="stop-color:#FDFDFD"
         id="stop111" />
      <stop
         offset="1"
         style="stop-color:#FFFFFF"
         id="stop112" />
    </linearGradient>
    <linearGradient
       id="SVGID_21_"
       gradientUnits="userSpaceOnUse"
       x1="1028.4922"
       y1="125.8882"
       x2="1033.5615"
       y2="125.8882"
       gradientTransform="matrix(0.6398,-0.7685,0.7685,0.6398,-45.5713,965.8203)">
      <stop
         offset="0"
         style="stop-color:#9E9E9E"
         id="stop113" />
      <stop
         offset="0.1794"
         style="stop-color:#ABABAB"
         id="stop114" />
      <stop
         offset="0.7125"
         style="stop-color:#CECECE"
         id="stop115" />
      <stop
         offset="1"
         style="stop-color:#DBDBDB"
         id="stop116" />
    </linearGradient>
  </defs>
  <g
     inkscape:label="Layer 1"
     inkscape:groupmode="layer"
     id="layer1"
     transform="translate(9761.8023,2586.8313)">
    <g
       id="g39"
       inkscape:export-filename="ants-favicon.png"
       inkscape:export-xdpi="96"
       inkscape:export-ydpi="96"
       transform="matrix(0.28889166,0,0,0.28889166,-10135.396,-2604.8444)">
      <g
         id="group-R5-2"
         transform="matrix(0.21061294,0,0,0.21061294,1282.149,-86.443154)"
         inkscape:label="ant"
         style="fill:#9ca3af;fill-opacity:1">
        <path
           id="path4-1-5"
           d="m 14188.5,4431.5 c -2500.8,779.2 -2838.4,6494.6 -298.9,6760 -175.8,105.1 -310.1,234.7 -400,373.8 -465.3,-603.6 -1675.6,-200.1 -2004.6,-586 -40.9,-40.7 -113,-85.3 -238.8,-42.6 C 11025.1,10653.3 9514.78,8215.1 9025.64,8266.9 8224.41,7298.3 7418.34,6685.6 6648.02,6388.8 c -121.13,-46.7 -163.67,-27.1 -172.83,-0.7 -9.41,27.1 17.85,62.5 133.52,124.5 769.65,412.2 1496.42,1078.3 2223.49,1930.5 -207.93,400.8 1823.6,2473 2203.5,2763.7 0.9,133.8 54,257 119.4,295.6 941.8,550.2 1607.1,589 1927.8,327 71.8,-46 168.9,-45.4 291.3,1.9 -50,214.3 0.7,428.6 161.6,594.4 -53,48.9 -101.9,100.4 -146.9,154.3 1.1,-4.7 1.7,-6.3 1.7,-6.3 -902.6,-329.6 -1599.1,1071.9 -2136.9,1056.9 -34.4,1.9 -77.2,11.1 -117.3,44 -530.9,-518.6 -2146.18,-2178 -2565.97,-2046 -977.14,-790.8 -1888.55,-1231.7 -2702.39,-1370.2 -127.98,-21.8 -165.79,5.9 -169.53,33.5 -3.87,28.5 29.89,57.8 155.52,95.6 836.05,251.8 1680.27,760.7 2561.68,1452.2 -123.68,431.1 2245.39,2041.5 2697.89,2268.1 l 0.6,3.7 7.5,5.1 c 100,89 227.1,132 299.6,109.3 1039.1,-331 1513.5,-799.1 1533.7,-1212.7 12.1,-73.2 147.6,-151.4 280.2,-212.9 -281.8,490.2 -299.2,1146.5 -51.9,1979.7 -15.5,9.5 -30.5,19.3 -45.3,29.4 l -4.2,-5.1 c -165.5,29.4 -422.8,66.5 -489,-7.4 -239,-338.1 -890.5,-478.4 -1945,-199.9 -73.4,19.8 -157.4,124.3 -194.1,253 l -0.5,1.1 -1.1,-0.1 -0.3,3.4 -1.7,3.9 1.3,2.9 c -38.6,515.7 116.8,3360.9 548.7,3477.5 111.2,1026.5 -267.4,2040.8 -603,2801.4 -45.8,103.7 14.5,142.8 57.1,162.8 47.8,22.3 95.8,9.2 140.3,-91.1 340.8,-767.8 756,-1647.3 666.2,-2896.6 314.9,-277.9 -204.9,-2330.7 -400.6,-3145.8 365.7,-186.5 1210.4,212.8 1841.3,71.9 -392.4,771.5 129.5,1926 1185.1,2144.2 0,332.5 -189.4,52.6 -610.6,47.4 -1192.3,-14.9 -1455,1730.8 -610.8,2948.1 -1023.3,739.6 -1662,1882.5 -1915.9,3428.7 -8,49.5 25.6,96.1 75,104.2 49.5,8 96.1,-25.6 104.2,-75 245.7,-1496.8 860.7,-2600.9 1845,-3312.2 277.5,347.7 653.1,640.8 1132.1,818.8 -293,-277.2 -405.9,-558.1 -428.5,-793.3 290.4,304.3 1049.7,304.7 1308.6,0 -22.6,235.2 -135.5,516.1 -428.5,793.3 479,-178 854.6,-471.1 1132.2,-818.8 984.1,711.3 1599.2,1815.4 1844.9,3312.2 8.1,49.4 54.7,83 104.2,75 49.4,-8.1 83,-54.7 75,-104.2 -253.9,-1546.2 -892.6,-2689.1 -1915.9,-3428.7 841.4,-1213.2 583.2,-2951.2 -598.7,-2948.2 -426.7,1 -622.7,286.7 -622.7,-47.3 1055.6,-218.2 1577.6,-1372.7 1185.1,-2144.2 630.9,140.9 1475.6,-258.4 1841.3,-71.9 -195.7,815.1 -715.4,2867.9 -400.6,3145.8 -89.8,1249.3 325.4,2128.8 666.2,2896.6 44.5,100.3 92.5,113.4 140.3,91.1 42.7,-20 102.9,-59.1 57.1,-162.8 -335.6,-760.6 -714.1,-1774.9 -603,-2801.4 431.9,-116.6 587.3,-2961.8 548.8,-3477.5 l 1.2,-2.9 -1.7,-3.9 -0.3,-3.4 -1.1,0.1 -0.5,-1.1 c -36.6,-128.7 -120.7,-233.2 -194.1,-253 -1054.4,-278.5 -1706,-138.2 -1945,199.9 -66.1,73.9 -323.5,36.8 -489,7.4 l -4.2,5.1 c -14.7,-10.1 -29.8,-19.9 -45.2,-29.4 245,-825.9 230,-1477.9 -44.7,-1966.8 123.2,59.4 241.5,131.9 252.7,200 20.2,413.6 494.6,881.7 1533.8,1212.7 72.5,22.7 199.5,-20.3 299.5,-109.3 l 7.5,-5.1 0.7,-3.7 c 452.4,-226.6 2821.5,-1837 2697.9,-2268.1 881.4,-691.5 1725.6,-1200.5 2561.6,-1452.2 125.7,-37.8 159.4,-67.2 155.5,-95.6 -3.7,-27.6 -41.5,-55.3 -169.5,-33.5 -813.8,138.5 -1725.2,579.4 -2702.4,1370.2 -419.8,-132 -2035,1527.4 -2566,2046 -40,-32.9 -82.8,-42.1 -117.2,-44 -535.3,14.9 -1227.8,-1373 -2124.1,-1061.3 -42.5,-50 -88.4,-97.9 -137.9,-143.6 159.7,-164.5 222.2,-384.4 182.9,-602.9 111.6,-38.7 200.9,-36.5 268.2,6.6 320.7,262 986,223.1 1927.8,-327 65.4,-38.6 118.5,-161.8 119.4,-295.6 379.9,-290.7 2411.4,-2362.9 2203.5,-2763.7 727.1,-852.2 1453.8,-1518.3 2223.5,-1930.5 115.7,-62 142.9,-97.4 133.5,-124.5 -9.2,-26.4 -51.7,-46 -172.8,0.7 -770.4,296.8 -1576.4,909.5 -2377.6,1878.1 -489.2,-51.8 -1999.5,2386.4 -2220.6,2669.8 -125.9,-42.7 -197.9,1.9 -238.8,42.6 -323.4,379.4 -1498.7,-4.1 -1980.4,556.2 -84.5,-132.4 -212.1,-253.7 -384.1,-348.6 2493.9,-318.5 2152.2,-5966.3 -326.8,-6755.4 v 0"
           style="fill:#9ca3af;fill-opacity:1;fill-rule:evenodd;stroke:none"
           transform="matrix(0.04110473,0,0,-0.04110473,-73.773228,1750.8027)"
           clip-path="url(#clipPath5-2-1)" />
      </g>
    </g>
  </g>
</svg>
