<?xml version="1.0" encoding="UTF-8" standalone="no"?>
<!-- Created with Inkscape (http://www.inkscape.org/) -->

<svg
   width="105.96675mm"
   height="94.510704mm"
   viewBox="0 0 105.96675 94.510704"
   version="1.1"
   id="svg1"
   xml:space="preserve"
   inkscape:version="1.4.2 (ebf0e940, 2025-05-08)"
   sodipodi:docname="ants.svg"
   inkscape:export-filename="ants.png"
   inkscape:export-xdpi="96"
   inkscape:export-ydpi="96"
   xmlns:inkscape="http://www.inkscape.org/namespaces/inkscape"
   xmlns:sodipodi="http://sodipodi.sourceforge.net/DTD/sodipodi-0.dtd"
   xmlns="http://www.w3.org/2000/svg"
   xmlns:svg="http://www.w3.org/2000/svg"><sodipodi:namedview
     id="namedview1"
     pagecolor="#ffffff"
     bordercolor="#000000"
     borderopacity="0.25"
     inkscape:showpageshadow="2"
     inkscape:pageopacity="0.0"
     inkscape:pagecheckerboard="0"
     inkscape:deskcolor="#d1d1d1"
     inkscape:document-units="mm"
     inkscape:zoom="0.69868395"
     inkscape:cx="971.11147"
     inkscape:cy="95.894574"
     inkscape:window-width="3840"
     inkscape:window-height="1027"
     inkscape:window-x="0"
     inkscape:window-y="25"
     inkscape:window-maximized="0"
     inkscape:current-layer="layer1" /><defs
     id="defs1"><linearGradient
   id="SVGID_13_"
   gradientUnits="userSpaceOnUse"
   x1="109.7607"
   y1="-480.73831"
   x2="109.7607"
   y2="-288.74289"
   gradientTransform="matrix(0.7685,0.6398,-0.6398,0.7685,301.2349,400.4385)">
				<stop
   offset="0"
   style="stop-color:#FFFFFF"
   id="stop70" />
				<stop
   offset="0.4038"
   style="stop-color:#BDBDBD"
   id="stop71" />
				<stop
   offset="0.5626"
   style="stop-color:#CACACA"
   id="stop72" />
				<stop
   offset="0.8554"
   style="stop-color:#ECECEC"
   id="stop73" />
				<stop
   offset="1"
   style="stop-color:#FFFFFF"
   id="stop74" />
			</linearGradient><linearGradient
   id="SVGID_14_"
   gradientUnits="userSpaceOnUse"
   x1="104.6641"
   y1="-481.082"
   x2="118.1161"
   y2="-403.05801"
   gradientTransform="matrix(0.7685,0.6398,-0.6398,0.7685,301.2349,400.4385)">
				<stop
   offset="0"
   style="stop-color:#FFFFFF"
   id="stop75" />
				<stop
   offset="1"
   style="stop-color:#DBDBDB"
   id="stop76" />
			</linearGradient><linearGradient
   id="SVGID_15_"
   gradientUnits="userSpaceOnUse"
   x1="780.59772"
   y1="748.14258"
   x2="796.15271"
   y2="838.36481"
   gradientTransform="matrix(-0.6882,-0.7115,0.7188,-0.6952,572.311,1316.6182)">
				<stop
   offset="0"
   style="stop-color:#FFFFFF"
   id="stop77" />
				<stop
   offset="0.2326"
   style="stop-color:#FAFAFA;stop-opacity:0.7674"
   id="stop78" />
				<stop
   offset="1"
   style="stop-color:#F8F8F8;stop-opacity:0"
   id="stop79" />
			</linearGradient><linearGradient
   id="SVGID_16_"
   gradientUnits="userSpaceOnUse"
   x1="1042.1992"
   y1="138.2412"
   x2="1042.1992"
   y2="144.6651"
   gradientTransform="matrix(0.6398,-0.7685,0.7685,0.6398,-45.5713,965.8203)">
			<stop
   offset="0"
   style="stop-color:#9E9E9E"
   id="stop85" />
			<stop
   offset="0.2297"
   style="stop-color:#A5A5A5"
   id="stop86" />
			<stop
   offset="0.5519"
   style="stop-color:#B7B7B7"
   id="stop87" />
			<stop
   offset="0.9272"
   style="stop-color:#D5D5D5"
   id="stop88" />
			<stop
   offset="1"
   style="stop-color:#DBDBDB"
   id="stop89" />
		</linearGradient><linearGradient
   id="SVGID_17_"
   gradientUnits="userSpaceOnUse"
   x1="1042.1982"
   y1="143.3584"
   x2="1042.1982"
   y2="144.86481"
   gradientTransform="matrix(0.6398,-0.7685,0.7685,0.6398,-45.5713,965.8203)">
			<stop
   offset="0"
   style="stop-color:#737373"
   id="stop90" />
			<stop
   offset="0.0482"
   style="stop-color:#707070"
   id="stop91" />
			<stop
   offset="0.6667"
   style="stop-color:#4D4D4D"
   id="stop92" />
			<stop
   offset="1"
   style="stop-color:#404040"
   id="stop93" />
		</linearGradient><linearGradient
   id="SVGID_18_"
   gradientUnits="userSpaceOnUse"
   x1="1022.6855"
   y1="153.2446"
   x2="1033.4424"
   y2="153.2446"
   gradientTransform="matrix(0.6398,-0.7685,0.7685,0.6398,-45.5713,965.8203)">
			<stop
   offset="0"
   style="stop-color:#9E9E9E"
   id="stop94" />
			<stop
   offset="0.1794"
   style="stop-color:#ABABAB"
   id="stop95" />
			<stop
   offset="0.7125"
   style="stop-color:#CECECE"
   id="stop96" />
			<stop
   offset="1"
   style="stop-color:#DBDBDB"
   id="stop97" />
		</linearGradient><linearGradient
   id="SVGID_19_"
   gradientUnits="userSpaceOnUse"
   x1="1057.2021"
   y1="153.24319"
   x2="1040.5306"
   y2="153.24319"
   gradientTransform="matrix(0.6398,-0.7685,0.7685,0.6398,-45.5713,965.8203)">
			<stop
   offset="0.0016"
   style="stop-color:#9E9E9E"
   id="stop98" />
			<stop
   offset="0.0986"
   style="stop-color:#BABABA"
   id="stop99" />
			<stop
   offset="0.213"
   style="stop-color:#D3D3D3"
   id="stop100" />
			<stop
   offset="0.341"
   style="stop-color:#E7E7E7"
   id="stop101" />
			<stop
   offset="0.4879"
   style="stop-color:#F5F5F5"
   id="stop102" />
			<stop
   offset="0.6708"
   style="stop-color:#FDFDFD"
   id="stop103" />
			<stop
   offset="1"
   style="stop-color:#FFFFFF"
   id="stop104" />
		</linearGradient><linearGradient
   id="SVGID_20_"
   gradientUnits="userSpaceOnUse"
   x1="1055.6289"
   y1="125.9331"
   x2="1040.8075"
   y2="125.9331"
   gradientTransform="matrix(0.6398,-0.7685,0.7685,0.6398,-45.5713,965.8203)">
			<stop
   offset="0.0016"
   style="stop-color:#9E9E9E"
   id="stop105" />
			<stop
   offset="0.0253"
   style="stop-color:#A9A9A9"
   id="stop106" />
			<stop
   offset="0.0952"
   style="stop-color:#C4C4C4"
   id="stop107" />
			<stop
   offset="0.1755"
   style="stop-color:#DADADA"
   id="stop108" />
			<stop
   offset="0.2693"
   style="stop-color:#EBEBEB"
   id="stop109" />
			<stop
   offset="0.3854"
   style="stop-color:#F6F6F6"
   id="stop110" />
			<stop
   offset="0.5481"
   style="stop-color:#FDFDFD"
   id="stop111" />
			<stop
   offset="1"
   style="stop-color:#FFFFFF"
   id="stop112" />
		</linearGradient><linearGradient
   id="SVGID_21_"
   gradientUnits="userSpaceOnUse"
   x1="1028.4922"
   y1="125.8882"
   x2="1033.5615"
   y2="125.8882"
   gradientTransform="matrix(0.6398,-0.7685,0.7685,0.6398,-45.5713,965.8203)">
			<stop
   offset="0"
   style="stop-color:#9E9E9E"
   id="stop113" />
			<stop
   offset="0.1794"
   style="stop-color:#ABABAB"
   id="stop114" />
			<stop
   offset="0.7125"
   style="stop-color:#CECECE"
   id="stop115" />
			<stop
   offset="1"
   style="stop-color:#DBDBDB"
   id="stop116" />
		</linearGradient><linearGradient
   id="SVGID_22_"
   gradientUnits="userSpaceOnUse"
   x1="1037.9727"
   y1="396.2666"
   x2="1055.5521"
   y2="197.48241"
   gradientTransform="matrix(0.6398,-0.7685,0.7685,0.6398,-45.5713,965.8203)">
			<stop
   offset="0.1771"
   style="stop-color:#2E3192"
   id="stop118" />
			<stop
   offset="0.1885"
   style="stop-color:#2C3494"
   id="stop119" />
			<stop
   offset="0.2027"
   style="stop-color:#243D98"
   id="stop120" />
			<stop
   offset="0.2186"
   style="stop-color:#0C4BA0"
   id="stop121" />
			<stop
   offset="0.2355"
   style="stop-color:#005DAC"
   id="stop122" />
			<stop
   offset="0.2534"
   style="stop-color:#0072BC"
   id="stop123" />
			<stop
   offset="0.272"
   style="stop-color:#008CD2"
   id="stop124" />
			<stop
   offset="0.2909"
   style="stop-color:#00AAEC"
   id="stop125" />
			<stop
   offset="0.2923"
   style="stop-color:#00AEEF"
   id="stop126" />
			<stop
   offset="0.3227"
   style="stop-color:#009ADE"
   id="stop127" />
			<stop
   offset="0.3627"
   style="stop-color:#0086CC"
   id="stop128" />
			<stop
   offset="0.4067"
   style="stop-color:#0073BD"
   id="stop129" />
			<stop
   offset="0.4537"
   style="stop-color:#0063B0"
   id="stop130" />
			<stop
   offset="0.5046"
   style="stop-color:#0055A7"
   id="stop131" />
			<stop
   offset="0.5607"
   style="stop-color:#14489F"
   id="stop132" />
			<stop
   offset="0.624"
   style="stop-color:#233E99"
   id="stop133" />
			<stop
   offset="0.6988"
   style="stop-color:#2A3695"
   id="stop134" />
			<stop
   offset="0.7962"
   style="stop-color:#2E3293"
   id="stop135" />
			<stop
   offset="1"
   style="stop-color:#2E3192"
   id="stop136" />
		</linearGradient><linearGradient
   id="SVGID_23_"
   gradientUnits="userSpaceOnUse"
   x1="562.17383"
   y1="235.6348"
   x2="829.1651"
   y2="378.36609"
   gradientTransform="matrix(0.26458333,0,0,0.26458333,-122.23904,105.45518)">
		<stop
   offset="0"
   style="stop-color:#DBDBDB;stop-opacity:0.5"
   id="stop139" />
		<stop
   offset="0.2587"
   style="stop-color:#A0A0A0;stop-opacity:0.6294"
   id="stop140" />
		<stop
   offset="0.5004"
   style="stop-color:#707070;stop-opacity:0.7502"
   id="stop141" />
		<stop
   offset="0.7123"
   style="stop-color:#4D4D4D;stop-opacity:0.8561"
   id="stop142" />
		<stop
   offset="0.886"
   style="stop-color:#383838;stop-opacity:0.943"
   id="stop143" />
		<stop
   offset="1"
   style="stop-color:#303030"
   id="stop144" />
	</linearGradient>
	
	
	<linearGradient
   id="linearGradient6"
   gradientUnits="userSpaceOnUse"
   x1="562.17383"
   y1="235.6348"
   x2="829.1651"
   y2="378.36609">
		<stop
   offset="0"
   style="stop-color:#DBDBDB;stop-opacity:0.5"
   id="stop1" />
		<stop
   offset="0.2587"
   style="stop-color:#A0A0A0;stop-opacity:0.6294"
   id="stop2" />
		<stop
   offset="0.5004"
   style="stop-color:#707070;stop-opacity:0.7502"
   id="stop3" />
		<stop
   offset="0.7123"
   style="stop-color:#4D4D4D;stop-opacity:0.8561"
   id="stop4" />
		<stop
   offset="0.886"
   style="stop-color:#383838;stop-opacity:0.943"
   id="stop5" />
		<stop
   offset="1"
   style="stop-color:#303030"
   id="stop6" />
	</linearGradient>
	
<clipPath
   clipPathUnits="userSpaceOnUse"
   id="clipPath3"><path
     d="M 0,0 V 28347 H 28347 V 0 Z"
     id="path3" /></clipPath><clipPath
   clipPathUnits="userSpaceOnUse"
   id="clipPath5"><path
     d="M 0,0 V 28347 H 28347 V 0 Z"
     id="path5" /></clipPath><clipPath
   clipPathUnits="userSpaceOnUse"
   id="clipPath5-2"><path
     d="M 0,0 V 28347 H 28347 V 0 Z"
     id="path5-9" /></clipPath></defs><g
     inkscape:label="Layer 1"
     inkscape:groupmode="layer"
     id="layer1"
     transform="translate(-77.305803,-121.81879)"><g
       id="group-R5"
       transform="matrix(0.06084432,0,0,0.06084432,74.06821,77.507272)"
       inkscape:label="ant"><path
         id="path4-1"
         d="m 14188.5,4431.5 c -2500.8,779.2 -2838.4,6494.6 -298.9,6760 -175.8,105.1 -310.1,234.7 -400,373.8 -465.3,-603.6 -1675.6,-200.1 -2004.6,-586 -40.9,-40.7 -113,-85.3 -238.8,-42.6 C 11025.1,10653.3 9514.78,8215.1 9025.64,8266.9 8224.41,7298.3 7418.34,6685.6 6648.02,6388.8 c -121.13,-46.7 -163.67,-27.1 -172.83,-0.7 -9.41,27.1 17.85,62.5 133.52,124.5 769.65,412.2 1496.42,1078.3 2223.49,1930.5 -207.93,400.8 1823.6,2473 2203.5,2763.7 0.9,133.8 54,257 119.4,295.6 941.8,550.2 1607.1,589 1927.8,327 71.8,-46 168.9,-45.4 291.3,1.9 -50,214.3 0.7,428.6 161.6,594.4 -53,48.9 -101.9,100.4 -146.9,154.3 1.1,-4.7 1.7,-6.3 1.7,-6.3 -902.6,-329.6 -1599.1,1071.9 -2136.9,1056.9 -34.4,1.9 -77.2,11.1 -117.3,44 -530.9,-518.6 -2146.18,-2178 -2565.97,-2046 -977.14,-790.8 -1888.55,-1231.7 -2702.39,-1370.2 -127.98,-21.8 -165.79,5.9 -169.53,33.5 -3.87,28.5 29.89,57.8 155.52,95.6 836.05,251.8 1680.27,760.7 2561.68,1452.2 -123.68,431.1 2245.39,2041.5 2697.89,2268.1 l 0.6,3.7 7.5,5.1 c 100,89 227.1,132 299.6,109.3 1039.1,-331 1513.5,-799.1 1533.7,-1212.7 12.1,-73.2 147.6,-151.4 280.2,-212.9 -281.8,490.2 -299.2,1146.5 -51.9,1979.7 -15.5,9.5 -30.5,19.3 -45.3,29.4 l -4.2,-5.1 c -165.5,29.4 -422.8,66.5 -489,-7.4 -239,-338.1 -890.5,-478.4 -1945,-199.9 -73.4,19.8 -157.4,124.3 -194.1,253 l -0.5,1.1 -1.1,-0.1 -0.3,3.4 -1.7,3.9 1.3,2.9 c -38.6,515.7 116.8,3360.9 548.7,3477.5 111.2,1026.5 -267.4,2040.8 -603,2801.4 -45.8,103.7 14.5,142.8 57.1,162.8 47.8,22.3 95.8,9.2 140.3,-91.1 340.8,-767.8 756,-1647.3 666.2,-2896.6 314.9,-277.9 -204.9,-2330.7 -400.6,-3145.8 365.7,-186.5 1210.4,212.8 1841.3,71.9 -392.4,771.5 129.5,1926 1185.1,2144.2 0,332.5 -189.4,52.6 -610.6,47.4 -1192.3,-14.9 -1455,1730.8 -610.8,2948.1 -1023.3,739.6 -1662,1882.5 -1915.9,3428.7 -8,49.5 25.6,96.1 75,104.2 49.5,8 96.1,-25.6 104.2,-75 245.7,-1496.8 860.7,-2600.9 1845,-3312.2 277.5,347.7 653.1,640.8 1132.1,818.8 -293,-277.2 -405.9,-558.1 -428.5,-793.3 290.4,304.3 1049.7,304.7 1308.6,0 -22.6,235.2 -135.5,516.1 -428.5,793.3 479,-178 854.6,-471.1 1132.2,-818.8 984.1,711.3 1599.2,1815.4 1844.9,3312.2 8.1,49.4 54.7,83 104.2,75 49.4,-8.1 83,-54.7 75,-104.2 -253.9,-1546.2 -892.6,-2689.1 -1915.9,-3428.7 841.4,-1213.2 583.2,-2951.2 -598.7,-2948.2 -426.7,1 -622.7,286.7 -622.7,-47.3 1055.6,-218.2 1577.6,-1372.7 1185.1,-2144.2 630.9,140.9 1475.6,-258.4 1841.3,-71.9 -195.7,815.1 -715.4,2867.9 -400.6,3145.8 -89.8,1249.3 325.4,2128.8 666.2,2896.6 44.5,100.3 92.5,113.4 140.3,91.1 42.7,-20 102.9,-59.1 57.1,-162.8 -335.6,-760.6 -714.1,-1774.9 -603,-2801.4 431.9,-116.6 587.3,-2961.8 548.8,-3477.5 l 1.2,-2.9 -1.7,-3.9 -0.3,-3.4 -1.1,0.1 -0.5,-1.1 c -36.6,-128.7 -120.7,-233.2 -194.1,-253 -1054.4,-278.5 -1706,-138.2 -1945,199.9 -66.1,73.9 -323.5,36.8 -489,7.4 l -4.2,5.1 c -14.7,-10.1 -29.8,-19.9 -45.2,-29.4 245,-825.9 230,-1477.9 -44.7,-1966.8 123.2,59.4 241.5,131.9 252.7,200 20.2,413.6 494.6,881.7 1533.8,1212.7 72.5,22.7 199.5,-20.3 299.5,-109.3 l 7.5,-5.1 0.7,-3.7 c 452.4,-226.6 2821.5,-1837 2697.9,-2268.1 881.4,-691.5 1725.6,-1200.5 2561.6,-1452.2 125.7,-37.8 159.4,-67.2 155.5,-95.6 -3.7,-27.6 -41.5,-55.3 -169.5,-33.5 -813.8,138.5 -1725.2,579.4 -2702.4,1370.2 -419.8,-132 -2035,1527.4 -2566,2046 -40,-32.9 -82.8,-42.1 -117.2,-44 -535.3,14.9 -1227.8,-1373 -2124.1,-1061.3 -42.5,-50 -88.4,-97.9 -137.9,-143.6 159.7,-164.5 222.2,-384.4 182.9,-602.9 111.6,-38.7 200.9,-36.5 268.2,6.6 320.7,262 986,223.1 1927.8,-327 65.4,-38.6 118.5,-161.8 119.4,-295.6 379.9,-290.7 2411.4,-2362.9 2203.5,-2763.7 727.1,-852.2 1453.8,-1518.3 2223.5,-1930.5 115.7,-62 142.9,-97.4 133.5,-124.5 -9.2,-26.4 -51.7,-46 -172.8,0.7 -770.4,296.8 -1576.4,909.5 -2377.6,1878.1 -489.2,-51.8 -1999.5,2386.4 -2220.6,2669.8 -125.9,-42.7 -197.9,1.9 -238.8,42.6 -323.4,379.4 -1498.7,-4.1 -1980.4,556.2 -84.5,-132.4 -212.1,-253.7 -384.1,-348.6 2493.9,-318.5 2152.2,-5966.3 -326.8,-6755.4 v 0"
         style="fill:#800080;fill-opacity:1;fill-rule:evenodd;stroke:none"
         transform="matrix(0.04110473,0,0,-0.04110473,-73.773228,1750.8027)"
         clip-path="url(#clipPath5-2)" /></g><g
       id="g138"
       transform="matrix(0.28889165,0,0,0.28889165,-77.863812,99.525677)"
       inkscape:label="loupe">
		<g
   id="g85"
   style="opacity:0.42">
			
				<linearGradient
   id="linearGradient5"
   gradientUnits="userSpaceOnUse"
   x1="109.7607"
   y1="-480.73831"
   x2="109.7607"
   y2="-288.74289"
   gradientTransform="matrix(0.7685,0.6398,-0.6398,0.7685,301.2349,400.4385)">
				<stop
   offset="0"
   style="stop-color:#FFFFFF"
   id="stop7" />
				<stop
   offset="0.4038"
   style="stop-color:#BDBDBD"
   id="stop8" />
				<stop
   offset="0.5626"
   style="stop-color:#CACACA"
   id="stop9" />
				<stop
   offset="0.8554"
   style="stop-color:#ECECEC"
   id="stop10" />
				<stop
   offset="1"
   style="stop-color:#FFFFFF"
   id="stop5-0" />
			</linearGradient>
			<path
   fill="url(#SVGID_13_)"
   d="m 729.183,169.212 c -14.897,4.539 -43.023,-6.418 -69.167,-28.183 -26.145,-21.766 -42.019,-47.438 -40.256,-62.912 -22.792,3.212 -44.511,14.575 -60.398,33.659 -33.948,40.778 -28.412,101.354 12.366,135.302 40.78,33.95 101.357,28.413 135.306,-12.365 15.886,-19.085 23.122,-42.503 22.149,-65.501 z"
   id="path74"
   style="fill:url(#SVGID_13_)" />
			
				<linearGradient
   id="linearGradient7"
   gradientUnits="userSpaceOnUse"
   x1="104.6641"
   y1="-481.082"
   x2="118.1161"
   y2="-403.05801"
   gradientTransform="matrix(0.7685,0.6398,-0.6398,0.7685,301.2349,400.4385)">
				<stop
   offset="0"
   style="stop-color:#FFFFFF"
   id="stop6-2" />
				<stop
   offset="1"
   style="stop-color:#DBDBDB"
   id="stop7-4" />
			</linearGradient>
			<path
   fill="url(#SVGID_14_)"
   d="m 660.015,141.03 c 26.145,21.766 54.27,32.723 69.168,28.184 -1.107,-26.144 -12.824,-51.744 -34.52,-69.805 -21.695,-18.061 -48.994,-24.942 -74.905,-21.29 -1.762,15.472 14.113,41.146 40.257,62.911 z"
   id="path76"
   style="fill:url(#SVGID_14_)" />
			
				<linearGradient
   id="linearGradient10"
   gradientUnits="userSpaceOnUse"
   x1="780.59772"
   y1="748.14258"
   x2="796.15271"
   y2="838.36481"
   gradientTransform="matrix(-0.6882,-0.7115,0.7188,-0.6952,572.311,1316.6182)">
				<stop
   offset="0"
   style="stop-color:#FFFFFF"
   id="stop8-8" />
				<stop
   offset="0.2326"
   style="stop-color:#FAFAFA;stop-opacity:0.7674"
   id="stop9-3" />
				<stop
   offset="1"
   style="stop-color:#F8F8F8;stop-opacity:0"
   id="stop10-9" />
			</linearGradient>
			<path
   fill="url(#SVGID_15_)"
   d="m 612.375,194.462 c -23.829,-24.636 -51.578,-37.917 -68.031,-33.981 -3.277,27.807 -1.677,51.965 22.843,78.484 19.307,20.88 48.984,26.973 76.883,24.625 4.482,-16.315 -7.868,-44.491 -31.695,-69.128 z"
   id="path79"
   style="fill:url(#SVGID_15_)" />
			<path
   opacity="0.6"
   fill="#e6e7e8"
   d="m 684.552,111.557 c 38.741,32.25 45.647,88.524 17.136,129.034 1.844,-1.872 3.633,-3.822 5.346,-5.877 C 740.981,193.935 735.444,133.357 694.666,99.41 653.887,65.462 593.31,70.999 559.362,111.778 c -1.711,2.056 -3.305,4.17 -4.812,6.322 34.67,-35.384 91.262,-38.794 130.002,-6.543 z"
   id="path80" />
			<path
   fill="#414042"
   d="m 710.654,116.289 c -0.658,-0.826 -1.345,-1.616 -2.023,-2.413 30.845,41.398 23.482,100.093 -17.196,132.49 -40.68,32.398 -99.532,26.44 -132.982,-12.884 0.627,0.841 1.242,1.687 1.901,2.513 33.056,41.505 93.498,48.354 135.003,15.297 41.506,-33.056 48.355,-93.499 15.297,-135.003 z"
   id="path81" />
			<path
   fill="#58595b"
   d="M 708.347,113.392 C 675.291,71.886 614.848,65.038 573.344,98.094 c -41.505,33.057 -48.353,93.498 -15.298,135.003 33.056,41.504 93.5,48.355 135.005,15.299 41.505,-33.057 48.352,-93.5 15.296,-135.004 z m -148.08,117.937 c -32.08,-40.276 -25.432,-98.935 14.846,-131.014 40.277,-32.078 98.935,-25.431 131.012,14.846 32.08,40.278 25.434,98.934 -14.845,131.012 -40.279,32.078 -98.934,25.433 -131.013,-14.844 z"
   id="path82" />
			<path
   opacity="0.2"
   fill="#545454"
   d="m 692.846,101.592 c -39.573,-32.944 -98.357,-27.571 -131.302,12.002 -32.944,39.573 -27.571,98.358 12.001,131.302 39.574,32.945 98.36,27.572 131.304,-12 32.945,-39.574 27.571,-98.359 -12.003,-131.304 z M 573.785,244.611 c -32.206,-26.811 -40,-72.059 -20.818,-107.56 3.199,-7.082 7.372,-13.86 12.585,-20.121 31.101,-37.36 86.599,-42.433 123.958,-11.332 37.361,31.102 42.435,86.601 11.332,123.961 -5.213,6.26 -11.123,11.594 -17.507,16.022 -31.433,25.302 -77.345,25.841 -109.55,-0.97 z"
   id="path83" />
			<g
   id="g84">
				<path
   fill="#939598"
   d="M 572.4,246.273 C 532.132,212.751 526.645,152.715 560.168,112.448 593.69,72.18 653.724,66.692 693.993,100.216 c 40.269,33.523 45.757,93.557 12.233,133.825 -33.524,40.268 -93.557,45.755 -133.826,12.232 z M 693.518,100.786 c -39.953,-33.262 -99.519,-27.818 -132.781,12.136 -33.262,39.954 -27.817,99.52 12.137,132.782 39.954,33.261 99.52,27.816 132.782,-12.138 33.262,-39.953 27.818,-99.519 -12.138,-132.78 z"
   id="path84" />
			</g>
		</g>
		
			<linearGradient
   id="linearGradient15"
   gradientUnits="userSpaceOnUse"
   x1="1042.1992"
   y1="138.2412"
   x2="1042.1992"
   y2="144.6651"
   gradientTransform="matrix(0.6398,-0.7685,0.7685,0.6398,-45.5713,965.8203)">
			<stop
   offset="0"
   style="stop-color:#9E9E9E"
   id="stop11-0" />
			<stop
   offset="0.2297"
   style="stop-color:#A5A5A5"
   id="stop12-5" />
			<stop
   offset="0.5519"
   style="stop-color:#B7B7B7"
   id="stop13-2" />
			<stop
   offset="0.9272"
   style="stop-color:#D5D5D5"
   id="stop14-2" />
			<stop
   offset="1"
   style="stop-color:#DBDBDB"
   id="stop15" />
		</linearGradient>
		<path
   fill="url(#SVGID_16_)"
   d="m 735.729,242.863 c -0.043,0.047 -0.093,0.082 -0.133,0.131 l -16.83,20.214 c -0.04,0.049 -0.065,0.104 -0.104,0.155 l 3.973,3.306 c 0.482,0.402 0.993,0.751 1.512,1.074 0.01,-0.011 0.021,-0.019 0.03,-0.031 l 16.829,-20.214 c 0.009,-0.012 0.015,-0.024 0.024,-0.036 -0.413,-0.452 -0.847,-0.89 -1.329,-1.292 z"
   id="path89"
   style="fill:url(#SVGID_16_)" />
		
			<linearGradient
   id="linearGradient19"
   gradientUnits="userSpaceOnUse"
   x1="1042.1982"
   y1="143.3584"
   x2="1042.1982"
   y2="144.86481"
   gradientTransform="matrix(0.6398,-0.7685,0.7685,0.6398,-45.5713,965.8203)">
			<stop
   offset="0"
   style="stop-color:#737373"
   id="stop16" />
			<stop
   offset="0.0482"
   style="stop-color:#707070"
   id="stop17" />
			<stop
   offset="0.6667"
   style="stop-color:#4D4D4D"
   id="stop18" />
			<stop
   offset="1"
   style="stop-color:#404040"
   id="stop19" />
		</linearGradient>
		<path
   opacity="0.8"
   fill="url(#SVGID_17_)"
   d="m 739.917,246.35 c -0.04,0.047 -0.081,0.09 -0.122,0.14 l -16.828,20.213 c -0.041,0.05 -0.076,0.097 -0.115,0.146 l 0.889,0.74 c 0.108,0.09 0.25,0.132 0.408,0.155 0.01,-0.012 0.02,-0.021 0.028,-0.033 l 16.829,-20.214 c 0.009,-0.012 0.017,-0.022 0.025,-0.034 -0.051,-0.151 -0.119,-0.283 -0.227,-0.373 z"
   id="path93"
   style="fill:url(#SVGID_17_)" />
		<polygon
   fill="none"
   points="728.574,262.429 728.105,261.683 723.554,257.894 722.809,258.788 727.998,263.122 "
   id="polygon93" />
		
			<linearGradient
   id="linearGradient23"
   gradientUnits="userSpaceOnUse"
   x1="1022.6855"
   y1="153.2446"
   x2="1033.4424"
   y2="153.2446"
   gradientTransform="matrix(0.6398,-0.7685,0.7685,0.6398,-45.5713,965.8203)">
			<stop
   offset="0"
   style="stop-color:#9E9E9E"
   id="stop20-7" />
			<stop
   offset="0.1794"
   style="stop-color:#ABABAB"
   id="stop21-3" />
			<stop
   offset="0.7125"
   style="stop-color:#CECECE"
   id="stop22-7" />
			<stop
   offset="1"
   style="stop-color:#DBDBDB"
   id="stop23-9" />
		</linearGradient>
		<path
   fill="url(#SVGID_18_)"
   d="m 726.988,264.334 -2.812,3.376 c -0.009,0.012 -0.021,0.02 -0.03,0.031 1.07,0.665 2.207,1.159 3.38,1.492 0.571,3.103 2.32,11.219 5.391,14.033 l 2.972,-3.568 -0.199,0.024 z"
   id="path97"
   style="fill:url(#SVGID_18_)" />
		<path
   fill="#e6e7e8"
   d="m 723.554,257.894 -18.215,-15.162 c -0.264,0.269 -0.532,0.537 -0.798,0.802 l 18.268,15.255 z"
   id="path98" />
		
			<linearGradient
   id="linearGradient30"
   gradientUnits="userSpaceOnUse"
   x1="1057.2021"
   y1="153.24319"
   x2="1040.5306"
   y2="153.24319"
   gradientTransform="matrix(0.6398,-0.7685,0.7685,0.6398,-45.5713,965.8203)">
			<stop
   offset="0.0016"
   style="stop-color:#9E9E9E"
   id="stop24-0" />
			<stop
   offset="0.0986"
   style="stop-color:#BABABA"
   id="stop25-2" />
			<stop
   offset="0.213"
   style="stop-color:#D3D3D3"
   id="stop26-3" />
			<stop
   offset="0.341"
   style="stop-color:#E7E7E7"
   id="stop27-9" />
			<stop
   offset="0.4879"
   style="stop-color:#F5F5F5"
   id="stop28-9" />
			<stop
   offset="0.6708"
   style="stop-color:#FDFDFD"
   id="stop29-7" />
			<stop
   offset="1"
   style="stop-color:#FFFFFF"
   id="stop30-0" />
		</linearGradient>
		<path
   fill="url(#SVGID_19_)"
   d="m 757.889,253.272 c -3.324,-2.509 -11.623,-2.758 -14.779,-2.757 -0.54,-1.092 -1.232,-2.122 -2.079,-3.054 -0.01,0.011 -0.016,0.024 -0.024,0.036 l -9.413,11.306 12.747,10.745 z"
   id="path104"
   style="fill:url(#SVGID_19_)" />
		
			<linearGradient
   id="linearGradient38"
   gradientUnits="userSpaceOnUse"
   x1="1055.6289"
   y1="125.9331"
   x2="1040.8075"
   y2="125.9331"
   gradientTransform="matrix(0.6398,-0.7685,0.7685,0.6398,-45.5713,965.8203)">
			<stop
   offset="0.0016"
   style="stop-color:#9E9E9E"
   id="stop31-3" />
			<stop
   offset="0.0253"
   style="stop-color:#A9A9A9"
   id="stop32-9" />
			<stop
   offset="0.0952"
   style="stop-color:#C4C4C4"
   id="stop33-8" />
			<stop
   offset="0.1755"
   style="stop-color:#DADADA"
   id="stop34-6" />
			<stop
   offset="0.2693"
   style="stop-color:#EBEBEB"
   id="stop35-5" />
			<stop
   offset="0.3854"
   style="stop-color:#F6F6F6"
   id="stop36-7" />
			<stop
   offset="0.5481"
   style="stop-color:#FDFDFD"
   id="stop37-6" />
			<stop
   offset="1"
   style="stop-color:#FFFFFF"
   id="stop38-2" />
		</linearGradient>
		<path
   fill="url(#SVGID_20_)"
   d="m 735.81,243.171 c 0.04,-0.048 0.091,-0.085 0.134,-0.13 l -16.529,-13.759 c -0.619,-0.516 -1.741,-1.342 -2.418,-1.727 -1.902,2.804 -4.793,7.299 -7.041,10 -0.563,0.677 -1.094,1.296 -1.611,1.893 l 18.055,15.029 z"
   id="path112"
   style="fill:url(#SVGID_20_)" />
		<polygon
   fill="#e6e7e8"
   points="737.908,277.272 728.574,262.429 727.998,263.122 728.01,263.132 736.793,278.613 "
   id="polygon112" />
		
			<linearGradient
   id="linearGradient42"
   gradientUnits="userSpaceOnUse"
   x1="1028.4922"
   y1="125.8882"
   x2="1033.5615"
   y2="125.8882"
   gradientTransform="matrix(0.6398,-0.7685,0.7685,0.6398,-45.5713,965.8203)">
			<stop
   offset="0"
   style="stop-color:#9E9E9E"
   id="stop39-7" />
			<stop
   offset="0.1794"
   style="stop-color:#ABABAB"
   id="stop40-0" />
			<stop
   offset="0.7125"
   style="stop-color:#CECECE"
   id="stop41-3" />
			<stop
   offset="1"
   style="stop-color:#DBDBDB"
   id="stop42-9" />
		</linearGradient>
		<path
   fill="url(#SVGID_21_)"
   d="m 700.234,247.546 c 0.608,0.806 1.305,1.562 2.114,2.234 l 16.528,13.76 c 0.037,-0.05 0.063,-0.104 0.104,-0.154 l 2.904,-3.487 -18.41,-15.325 c -0.994,0.952 -2.044,1.915 -3.24,2.972 z"
   id="path116"
   style="fill:url(#SVGID_21_)" />
		<polygon
   fill="#58595b"
   points="736.793,278.613 728.01,263.132 727.998,263.122 726.988,264.334 735.689,279.723 735.889,279.699 "
   id="polygon116" />
		<path
   fill="#58595b"
   d="m 704.541,243.533 c -0.348,0.347 -0.705,0.694 -1.066,1.041 l 18.41,15.325 0.924,-1.11 z"
   id="path117" />
		<polygon
   fill="#58595b"
   points="731.593,258.803 728.574,262.429 737.908,277.272 744.34,269.548 "
   id="polygon117" />
		<path
   fill="#58595b"
   d="m 726.398,254.477 -18.055,-15.029 c -1.04,1.197 -2.018,2.268 -3.005,3.283 l 18.215,15.162 z"
   id="path118" />
		
			<linearGradient
   id="linearGradient61"
   gradientUnits="userSpaceOnUse"
   x1="1037.9727"
   y1="396.2666"
   x2="1055.5521"
   y2="197.48241"
   gradientTransform="matrix(0.6398,-0.7685,0.7685,0.6398,-45.5713,965.8203)">
			<stop
   offset="0.1771"
   style="stop-color:#2E3192"
   id="stop43-9" />
			<stop
   offset="0.1885"
   style="stop-color:#2C3494"
   id="stop44-9" />
			<stop
   offset="0.2027"
   style="stop-color:#243D98"
   id="stop45-1" />
			<stop
   offset="0.2186"
   style="stop-color:#0C4BA0"
   id="stop46-7" />
			<stop
   offset="0.2355"
   style="stop-color:#005DAC"
   id="stop47-2" />
			<stop
   offset="0.2534"
   style="stop-color:#0072BC"
   id="stop48-3" />
			<stop
   offset="0.272"
   style="stop-color:#008CD2"
   id="stop49-6" />
			<stop
   offset="0.2909"
   style="stop-color:#00AAEC"
   id="stop50-5" />
			<stop
   offset="0.2923"
   style="stop-color:#00AEEF"
   id="stop51-5" />
			<stop
   offset="0.3227"
   style="stop-color:#009ADE"
   id="stop52" />
			<stop
   offset="0.3627"
   style="stop-color:#0086CC"
   id="stop53-8" />
			<stop
   offset="0.4067"
   style="stop-color:#0073BD"
   id="stop54-1" />
			<stop
   offset="0.4537"
   style="stop-color:#0063B0"
   id="stop55-4" />
			<stop
   offset="0.5046"
   style="stop-color:#0055A7"
   id="stop56-7" />
			<stop
   offset="0.5607"
   style="stop-color:#14489F"
   id="stop57-1" />
			<stop
   offset="0.624"
   style="stop-color:#233E99"
   id="stop58-3" />
			<stop
   offset="0.6988"
   style="stop-color:#2A3695"
   id="stop59-8" />
			<stop
   offset="0.7962"
   style="stop-color:#2E3293"
   id="stop60-4" />
			<stop
   offset="1"
   style="stop-color:#2E3192"
   id="stop61-8" />
		</linearGradient>
		<path
   fill="url(#SVGID_22_)"
   d="m 758.027,253.684 -14.123,16.966 c 0.705,-0.483 1.119,-0.768 1.119,-0.768 l 149.947,124.83 c 0.07,-0.085 0.143,-0.167 0.214,-0.252 l 1.391,-1.67 c 6.489,-7.794 10.944,-14.783 3.397,-21.066 L 759.514,254.792 c -0.481,-0.399 -0.977,-0.768 -1.487,-1.108 z"
   id="path136"
   style="fill:url(#SVGID_22_)" />
		<path
   fill="#1c1666"
   d="m 743.904,270.65 -10.638,12.778 c 0.427,0.439 0.878,0.861 1.359,1.262 l 140.458,116.931 c 7.463,6.213 13.479,0.753 19.887,-6.909 L 745.023,269.882 c 0,10e-4 -0.414,0.285 -1.119,0.768 z"
   id="path137" />
		<path
   opacity="0.6"
   fill="#58595b"
   d="m 562.223,114.648 c -32.934,39.561 -27.563,98.326 11.998,131.26 39.559,32.934 98.326,27.563 131.26,-11.998 32.934,-39.559 27.563,-98.326 -11.998,-131.26 -39.56,-32.934 -98.327,-27.562 -131.26,11.998 z m 140.865,117.269 c -31.833,38.238 -88.637,43.431 -126.875,11.597 -38.238,-31.832 -43.429,-88.636 -11.597,-126.873 31.833,-38.237 88.635,-43.429 126.873,-11.597 38.24,31.833 43.431,88.636 11.599,126.873 z"
   id="path138" />
	</g></g></svg>
